<?xml version="1.0" encoding="UTF-8"?>
<svg width="70" height="70" version="1.1" xmlns="http://www.w3.org/2000/svg">
 <path d="M35 0l35 35-35 35L0 35z" fill="#6f7c91"/>
 <path d="m41.83 24.21c-0.3148 0.006112-0.6348 0.0728-0.9355 0.207-1.203 0.5369-1.709 1.82-0.6426 3.076-0.2674 1.09-1.109 2.065-2.416 3.266 0.6275 0.6124 1.903 1.213 2.418 1.027 0.9685-0.3502 4.074-4.17 3.629-6.143-0.2079-0.9206-1.108-1.452-2.053-1.434zm3.529 6.48c-0.09669 0.0049-0.1781 0.04619-0.2422 0.1309-1.457 1.925-2.697 3.836-4.729 3.826-1.102-0.0051-3.295-0.9291-4.785-1.738-1.982-1.076-4.027-2.058-5.582-2.021-2.839 0.06681-5.441 3.38-7.496 6.262 0.778 1.353 1.945 2.573 2.355 2.031 1.457-1.925 2.695-3.836 4.727-3.826 1.102 0.0051 3.295 0.9291 4.785 1.738 1.982 1.076 4.027 2.056 5.582 2.02 2.839-0.06681 5.441-3.38 7.496-6.262-0.6564-1.142-1.589-2.187-2.111-2.16z" fill="#fff" stroke-width="1.097"/>
</svg>
